<svg width="18" height="16" viewBox="0 0 18 16" fill="none" xmlns="http://www.w3.org/2000/svg">
<path d="M17.7603 7.42138L10.6694 0.330527C10.3499 0.0109995 9.83187 0.0109995 9.51235 0.330527C9.19282 0.650054 9.19282 1.16807 9.51235 1.4876L15.2066 7.18193L0.818073 7.18269C0.366273 7.18269 0 7.54902 0 8.00088C0 8.45273 0.366382 8.81906 0.818236 8.819L15.2065 8.81824L9.5124 14.5123C9.19287 14.8319 9.19287 15.3499 9.5124 15.6694C9.67211 15.8292 9.88151 15.9091 10.0909 15.9091C10.3003 15.9091 10.5097 15.8292 10.6694 15.6694L17.7603 8.57846C17.9138 8.42502 18 8.21693 18 7.99995C18 7.78297 17.9138 7.57482 17.7603 7.42138Z" fill="white"/>
</svg>
