<svg width="278" height="398" viewBox="0 0 278 398" fill="none" xmlns="http://www.w3.org/2000/svg">
<path d="M102.57 77.6675C104.034 77.5267 105.51 77.7085 106.896 78.2C108.281 78.6915 109.542 79.4808 110.589 80.5123C111.637 81.5438 112.445 82.7925 112.958 84.1702C113.471 85.548 113.675 87.0215 113.557 88.4868L146.264 102.882L130.662 112.953L101.995 97.7389C99.5463 97.3769 97.3157 96.1293 95.7256 94.2326C94.1355 92.3358 93.2964 89.9217 93.3674 87.4476C93.4383 84.9735 94.4144 82.6115 96.1105 80.8089C97.8067 79.0064 100.105 77.8887 102.57 77.6676V77.6675Z" fill="#FFB8B8"/>
<path d="M234.502 59.7107C248.067 59.7107 259.063 48.7143 259.063 35.1497C259.063 21.585 248.067 10.5886 234.502 10.5886C220.937 10.5886 209.941 21.585 209.941 35.1497C209.941 48.7143 220.937 59.7107 234.502 59.7107Z" fill="#FFB8B8"/>
<path d="M190.05 385.364L177.79 385.363L171.958 338.075L190.052 338.076L190.05 385.364Z" fill="#FFB8B8"/>
<path d="M193.176 397.248L153.646 397.246V396.746C153.646 394.726 154.044 392.725 154.817 390.858C155.59 388.991 156.724 387.295 158.152 385.866C159.581 384.438 161.277 383.304 163.144 382.531C165.011 381.758 167.012 381.36 169.032 381.36H169.033L193.177 381.361L193.176 397.248Z" fill="#2F2E41"/>
<path d="M241.05 385.364L228.79 385.363L222.958 338.075L241.052 338.076L241.05 385.364Z" fill="#FFB8B8"/>
<path d="M244.176 397.248L204.646 397.246V396.746C204.646 394.726 205.044 392.725 205.817 390.858C206.59 388.991 207.724 387.295 209.152 385.866C210.581 384.438 212.277 383.304 214.144 382.531C216.011 381.758 218.012 381.36 220.032 381.36H220.033L244.177 381.361L244.176 397.248Z" fill="#2F2E41"/>
<path d="M240.469 375.292C240.285 375.292 240.102 375.28 239.92 375.258L221.974 373.049C220.923 372.921 219.951 372.426 219.229 371.651C218.507 370.876 218.083 369.871 218.03 368.813L212.8 251.05C212.782 250.716 212.654 250.397 212.434 250.145C212.214 249.892 211.916 249.721 211.588 249.657C211.259 249.593 210.919 249.641 210.621 249.793C210.323 249.945 210.084 250.193 209.943 250.496L196.509 295.28L193.742 367.217C193.718 367.837 193.566 368.446 193.296 369.005C193.025 369.563 192.642 370.06 192.171 370.463C191.699 370.867 191.148 371.168 190.555 371.349C189.961 371.529 189.336 371.585 188.719 371.512L173.179 369.683C172.068 369.555 171.044 369.017 170.309 368.174C169.574 367.331 169.18 366.244 169.206 365.126L170.525 297.412L181.054 191.12L181.524 191.138L245.546 193.605L244.969 370.807C244.965 371.998 244.489 373.138 243.646 373.979C242.802 374.82 241.66 375.292 240.469 375.292H240.469Z" fill="#2F2D4A"/>
<path d="M243.12 203.318C243.081 203.318 243.042 203.318 243.003 203.317L178.524 201.628C177.892 201.611 177.27 201.462 176.7 201.189C176.13 200.916 175.623 200.526 175.214 200.045C174.804 199.563 174.501 199.001 174.323 198.394C174.145 197.787 174.097 197.15 174.183 196.523L186.573 105.332C187.346 99.1746 189.41 93.2496 192.629 87.9438C195.848 82.638 200.149 78.0707 205.253 74.5401C209.742 71.4496 214.841 69.3556 220.207 68.3989C225.572 67.4422 231.08 67.6448 236.361 68.9932C258.867 74.6963 272.369 98.8633 266.458 122.865L247.49 199.895C247.245 200.869 246.683 201.735 245.892 202.355C245.1 202.975 244.125 203.314 243.12 203.318Z" fill="#0555FF"/>
<path d="M158.53 130.904C154.281 130.909 150.123 129.674 146.566 127.35L108.963 102.68C108.413 102.319 107.948 101.841 107.603 101.281C107.257 100.721 107.038 100.092 106.962 99.4381C106.886 98.7843 106.954 98.1217 107.162 97.4971C107.37 96.8725 107.712 96.3011 108.165 95.8232L113.829 89.8428C114.447 89.1872 115.248 88.7329 116.127 88.539C117.007 88.3451 117.925 88.4207 118.761 88.7559L160.762 105.481L199.671 77.6953C201.491 76.3962 203.56 75.4888 205.748 75.0306C207.936 74.5724 210.196 74.5733 212.383 75.0334C214.571 75.4935 216.64 76.4026 218.458 77.7034C220.276 79.0041 221.805 80.6681 222.947 82.59C224.089 84.5119 224.819 86.65 225.092 88.8688C225.366 91.0877 225.175 93.3391 224.533 95.4806C223.891 97.6221 222.812 99.607 221.363 101.31C219.915 103.013 218.128 104.396 216.117 105.373L168.029 128.73C165.068 130.165 161.82 130.908 158.53 130.904Z" fill="#0555FF"/>
<path d="M243.012 58.6377C247.203 59.6271 252.258 60.3863 255.252 57.2929C255.783 56.7089 256.257 56.0761 256.668 55.4028L260.583 49.4254C263.583 44.8465 266.635 40.1481 267.904 34.8236C268.633 31.764 268.747 28.5901 268.24 25.486C267.732 22.382 266.613 19.4097 264.947 16.7419C263.281 14.0741 261.101 11.764 258.535 9.94571C255.968 8.1274 253.066 6.83716 249.997 6.14996C244.151 4.84114 238.431 2.58919 232.455 2.99997C226.479 3.41075 219.47 3.27589 214.455 -3.05176e-05C214.768 1.46043 216.457 7.91338 216.457 7.91338C216.457 7.91338 208.916 14.832 207.403 16.5572C209.383 15.6795 211.538 15.2674 213.702 15.3526C215.866 15.4378 217.981 16.0179 219.886 17.0484C221.791 18.079 223.434 19.5325 224.689 21.2972C225.944 23.062 226.778 25.091 227.126 27.2284C227.555 29.8543 227.303 32.7664 228.863 34.9216C230.347 36.9714 233.008 37.6896 235.245 38.8731C238.469 40.71 240.931 43.6386 242.187 47.1306C243.442 50.6227 243.408 54.4484 242.092 57.9179L243.012 58.6377Z" fill="#1C1A27"/>
<path d="M213.523 212.115H9.93359C7.37434 212.112 4.92075 211.094 3.11108 209.284C1.30142 207.475 0.283519 205.021 0.28064 202.462V98.9121C0.283519 96.3528 1.30142 93.8992 3.11108 92.0896C4.92075 90.2799 7.37434 89.2619 9.93359 89.2591H213.523C216.082 89.262 218.536 90.2799 220.346 92.0896C222.155 93.8992 223.173 96.3528 223.176 98.9121V202.462C223.173 205.021 222.155 207.475 220.346 209.284C218.536 211.094 216.082 212.112 213.523 212.115Z" fill="#0555FF" fill-opacity="0.6"/>
<path d="M211.183 205.094H12.2737C10.9553 205.093 9.69134 204.569 8.75909 203.636C7.82685 202.704 7.30244 201.44 7.30096 200.122V101.252C7.30244 99.9338 7.82685 98.6698 8.75909 97.7375C9.69134 96.8053 10.9553 96.2809 12.2737 96.2794H211.183C212.501 96.2809 213.765 96.8053 214.698 97.7375C215.63 98.6698 216.154 99.9338 216.156 101.252V200.122C216.154 201.44 215.63 202.704 214.698 203.636C213.765 204.569 212.501 205.093 211.183 205.094Z" fill="white"/>
<path d="M186.965 146.253H86.3399C85.0986 146.253 83.9082 145.76 83.0305 144.882C82.1527 144.005 81.6597 142.814 81.6597 141.573C81.6597 140.332 82.1527 139.141 83.0305 138.264C83.9082 137.386 85.0986 136.893 86.3399 136.893H186.965C188.206 136.893 189.396 137.386 190.274 138.264C191.152 139.141 191.645 140.332 191.645 141.573C191.645 142.814 191.152 144.005 190.274 144.882C189.396 145.76 188.206 146.253 186.965 146.253Z" fill="#0555FF" fill-opacity="0.6"/>
<path d="M154.203 126.362H86.3399C85.7247 126.363 85.1154 126.243 84.5468 126.008C83.9781 125.773 83.4614 125.429 83.0261 124.994C82.5907 124.559 82.2453 124.043 82.0097 123.475C81.7741 122.906 81.6528 122.297 81.6528 121.682C81.6528 121.067 81.7741 120.458 82.0097 119.889C82.2453 119.321 82.5907 118.805 83.0261 118.37C83.4614 117.936 83.9781 117.591 84.5468 117.356C85.1154 117.121 85.7247 117.001 86.3399 117.002H154.203C155.444 117.002 156.635 117.495 157.512 118.373C158.39 119.25 158.883 120.441 158.883 121.682C158.883 122.923 158.39 124.114 157.512 124.992C156.635 125.869 155.444 126.362 154.203 126.362Z" fill="#0555FF" fill-opacity="0.6"/>
<path d="M44.6857 146.253C52.7632 146.253 59.3113 139.705 59.3113 131.628C59.3113 123.55 52.7632 117.002 44.6857 117.002C36.6081 117.002 30.06 123.55 30.06 131.628C30.06 139.705 36.6081 146.253 44.6857 146.253Z" fill="#0555FF"/>
<path d="M155.955 184.372C158.54 184.372 160.635 182.277 160.635 179.692C160.635 177.107 158.54 175.012 155.955 175.012C153.37 175.012 151.275 177.107 151.275 179.692C151.275 182.277 153.37 184.372 155.955 184.372Z" fill="#0555FF"/>
<path d="M172.336 184.372C174.921 184.372 177.016 182.277 177.016 179.692C177.016 177.107 174.921 175.012 172.336 175.012C169.751 175.012 167.656 177.107 167.656 179.692C167.656 182.277 169.751 184.372 172.336 184.372Z" fill="#FF9D0A"/>
<path d="M188.716 184.372C191.301 184.372 193.397 182.277 193.397 179.692C193.397 177.107 191.301 175.012 188.716 175.012C186.132 175.012 184.036 177.107 184.036 179.692C184.036 182.277 186.132 184.372 188.716 184.372Z" fill="#0555FF"/>
<path d="M210.371 199.8C210.532 198.339 211.012 196.931 211.777 195.676C212.541 194.42 213.572 193.347 214.796 192.533C216.02 191.719 217.408 191.183 218.861 190.963C220.315 190.743 221.799 190.845 223.209 191.261L243.993 162.191L250.658 179.524L229.899 204.471C229.044 206.794 227.366 208.722 225.184 209.89C223.002 211.058 220.468 211.386 218.06 210.81C215.653 210.234 213.541 208.795 212.124 206.766C210.706 204.737 210.083 202.259 210.371 199.8H210.371Z" fill="#FFB8B8"/>
<path d="M234.178 198.232C233.851 198.259 233.522 198.251 233.197 198.207C232.544 198.12 231.919 197.89 231.365 197.534C230.811 197.178 230.342 196.705 229.992 196.147L225.6 189.179C225.117 188.418 224.874 187.529 224.904 186.629C224.934 185.728 225.235 184.858 225.768 184.131L252.37 147.577L235.079 103.001C233.535 99.0793 233.593 94.7074 235.241 90.8279C236.89 86.9485 239.997 83.8721 243.893 82.2619C246.094 81.3387 248.472 80.9148 250.857 81.0206C253.241 81.1265 255.573 81.7594 257.683 82.874C259.794 83.9885 261.632 85.5569 263.064 87.4665C264.496 89.376 265.487 91.5792 265.966 93.9176L276.694 146.291C277.44 149.984 277.22 153.808 276.055 157.392C274.89 160.975 272.819 164.197 270.043 166.745L236.833 197.071C236.101 197.741 235.167 198.149 234.178 198.232Z" fill="#0555FF"/>
</svg>
