<svg width="277" height="413" viewBox="0 0 277 413" fill="none" xmlns="http://www.w3.org/2000/svg">
<path d="M272.713 118.724L93.86 266.958C91.6096 268.819 88.713 269.711 85.8056 269.439C82.8982 269.167 80.2175 267.752 78.3516 265.506L2.95651 174.538C1.09566 172.287 0.203416 169.391 0.475579 166.483C0.747743 163.576 2.16208 160.895 4.40826 159.029L183.261 10.795C185.512 8.93414 188.409 8.0419 191.316 8.31407C194.223 8.58623 196.904 10.0006 198.77 12.2467L274.165 103.215C276.026 105.466 276.918 108.362 276.646 111.27C276.374 114.177 274.959 116.858 272.713 118.724Z" fill="#0555FF" fill-opacity="0.6"/>
<path d="M265.546 114.26L90.8043 259.087C89.645 260.045 88.1528 260.505 86.655 260.365C85.1573 260.225 83.7763 259.496 82.8151 258.339L10.8277 171.482C9.86905 170.323 9.40941 168.831 9.54961 167.333C9.68982 165.835 10.4184 164.454 11.5756 163.493L186.317 18.6662C187.477 17.7075 188.969 17.2479 190.466 17.3881C191.964 17.5283 193.345 18.2569 194.306 19.4141L266.294 106.271C267.252 107.43 267.712 108.922 267.572 110.42C267.432 111.918 266.703 113.299 265.546 114.26Z" fill="white"/>
<path d="M201.428 80.2017L113.029 153.467C112.489 153.914 111.866 154.251 111.196 154.458C110.526 154.665 109.822 154.738 109.123 154.672C108.425 154.607 107.747 154.405 107.127 154.077C106.507 153.749 105.957 153.303 105.51 152.763C105.062 152.223 104.725 151.6 104.518 150.93C104.312 150.26 104.239 149.556 104.304 148.858C104.37 148.159 104.572 147.481 104.899 146.861C105.227 146.241 105.673 145.691 106.213 145.244L194.612 71.9785C195.152 71.531 195.775 71.1942 196.445 70.9874C197.115 70.7806 197.819 70.7078 198.518 70.7732C199.216 70.8385 199.894 71.0408 200.514 71.3684C201.134 71.696 201.684 72.1425 202.131 72.6824C202.579 73.2223 202.916 73.8451 203.122 74.5152C203.329 75.1853 203.402 75.8896 203.337 76.5878C203.271 77.286 203.069 77.9646 202.742 78.5846C202.414 79.2047 201.967 79.7542 201.428 80.2017Z" fill="#0555FF" fill-opacity="0.6"/>
<path d="M158.164 86.5813L98.5461 135.993C97.4557 136.897 96.0509 137.33 94.6408 137.198C93.2306 137.066 91.9306 136.379 91.0269 135.289C90.1231 134.198 89.6895 132.794 89.8215 131.383C89.9535 129.973 90.6403 128.673 91.7308 127.77L151.349 78.3582C152.439 77.4544 153.844 77.0208 155.254 77.1528C156.664 77.2848 157.964 77.9716 158.868 79.0621C159.772 80.1525 160.205 81.5573 160.073 82.9675C159.941 84.3776 159.254 85.6775 158.164 86.5813Z" fill="#CCCCCC"/>
<path d="M65.7866 187.635C75.0031 187.635 82.4745 180.163 82.4745 170.947C82.4745 161.73 75.0031 154.259 65.7866 154.259C56.57 154.259 49.0986 161.73 49.0986 170.947C49.0986 180.163 56.57 187.635 65.7866 187.635Z" fill="#FF9D0A"/>
<path d="M192.34 137.68C195.289 137.68 197.68 135.289 197.68 132.34C197.68 129.391 195.289 127 192.34 127C189.391 127 187 129.391 187 132.34C187 135.289 189.391 137.68 192.34 137.68Z" fill="#0555FF"/>
<path d="M208.923 122.569C211.872 122.569 214.263 120.178 214.263 117.229C214.263 114.28 211.872 111.889 208.923 111.889C205.974 111.889 203.583 114.28 203.583 117.229C203.583 120.178 205.974 122.569 208.923 122.569Z" fill="#0555FF"/>
<path d="M227.313 102.68C230.263 102.68 232.654 100.289 232.654 97.3401C232.654 94.3909 230.263 92 227.313 92C224.364 92 221.973 94.3909 221.973 97.3401C221.973 100.289 224.364 102.68 227.313 102.68Z" fill="#FF9D0B"/>
<path d="M142.198 400.214L154.458 400.213L160.29 352.925L142.196 352.926L142.198 400.214Z" fill="#FFB8B8"/>
<path d="M139.071 396.211L163.215 396.21H163.216C165.237 396.21 167.237 396.608 169.104 397.382C170.971 398.155 172.667 399.288 174.096 400.717C175.525 402.146 176.658 403.842 177.431 405.708C178.204 407.575 178.602 409.576 178.602 411.597V412.097L139.072 412.098L139.071 396.211Z" fill="#2F2E41"/>
<path d="M98.198 400.214L110.458 400.213L116.29 352.925L98.196 352.926L98.198 400.214Z" fill="#FFB8B8"/>
<path d="M95.0711 396.211L119.215 396.21H119.216C121.237 396.21 123.237 396.608 125.104 397.382C126.971 398.155 128.667 399.288 130.096 400.717C131.525 402.146 132.658 403.842 133.431 405.708C134.204 407.575 134.602 409.576 134.602 411.597V412.097L95.0719 412.098L95.0711 396.211Z" fill="#2F2E41"/>
<path d="M110.501 385.745H110.499L100.073 385.742C98.9068 385.746 97.7849 385.295 96.9456 384.485C96.1063 383.675 95.6158 382.57 95.5784 381.404L95.25 372.283C92.6145 299.343 89.8892 223.919 106.767 190.019L106.9 189.752L162.78 187.729L173.998 290.641C174.477 295.03 174.302 299.467 173.478 303.805L158.648 381.953C158.447 383.013 157.873 383.965 157.029 384.636C156.185 385.308 155.128 385.654 154.051 385.611L142.34 385.231C141.727 385.207 141.125 385.058 140.572 384.792C140.019 384.527 139.525 384.151 139.122 383.688C138.719 383.225 138.416 382.685 138.229 382.1C138.043 381.515 137.978 380.899 138.039 380.288L147.238 308.009C147.551 304.889 147.268 301.738 146.403 298.725L134.962 258.73C134.868 258.4 134.662 258.112 134.381 257.914C134.099 257.717 133.758 257.622 133.415 257.647C133.072 257.671 132.747 257.812 132.496 258.047C132.245 258.282 132.082 258.596 132.034 258.936L114.958 381.864C114.804 382.938 114.27 383.922 113.452 384.634C112.633 385.347 111.586 385.741 110.501 385.745Z" fill="#2F2D4A"/>
<path d="M117.183 84.8417C130.748 84.8417 141.745 73.8454 141.745 60.2807C141.745 46.716 130.748 35.7197 117.183 35.7197C103.619 35.7197 92.6224 46.716 92.6224 60.2807C92.6224 73.8454 103.619 84.8417 117.183 84.8417Z" fill="#FFB8B8"/>
<path d="M160.16 195.326H109.337C108.691 195.326 108.053 195.187 107.466 194.918C106.878 194.65 106.356 194.258 105.933 193.769C105.511 193.281 105.198 192.707 105.017 192.087C104.836 191.467 104.791 190.815 104.884 190.176L107.395 172.979L92.6511 132.426C91.129 128.239 90.5634 123.765 90.9959 119.331C91.4283 114.898 92.8477 110.617 95.1501 106.804C97.4525 102.99 100.579 99.7404 104.301 97.2928C108.024 94.8453 112.246 93.262 116.66 92.6592C122.948 91.7822 129.353 92.9415 134.935 95.9673C140.517 98.9932 144.983 103.727 147.681 109.475L150.919 116.365L164.585 190.006C164.705 190.655 164.681 191.323 164.515 191.962C164.348 192.601 164.043 193.196 163.62 193.704C163.198 194.211 162.669 194.62 162.071 194.901C161.473 195.181 160.821 195.326 160.16 195.326H160.16Z" fill="#0555FF"/>
<path d="M52.8739 238.462C54.4037 238.107 55.837 237.421 57.0728 236.451C58.3086 235.482 59.317 234.254 60.0267 232.853C60.7365 231.452 61.1304 229.912 61.1808 228.343C61.2312 226.773 60.9369 225.211 60.3184 223.768L99.9208 134.296L77.2662 128.59L45.462 218.332C43.1057 219.532 41.2713 221.554 40.3064 224.016C39.3415 226.478 39.3132 229.208 40.2268 231.689C41.1404 234.171 42.9324 236.23 45.2634 237.479C47.5943 238.727 50.3022 239.077 52.8738 238.462H52.8739Z" fill="#FFB8B8"/>
<path d="M94.5597 150.297L72.5263 139.984C71.8994 139.69 71.3431 139.265 70.8953 138.737C70.4475 138.209 70.1187 137.591 69.9314 136.925C69.744 136.259 69.7025 135.56 69.8096 134.876C69.9167 134.192 70.1699 133.539 70.552 132.962L83.9425 112.739C85.4633 109.542 88.1894 107.079 91.5234 105.888C94.8574 104.697 98.5274 104.877 101.729 106.387C104.931 107.897 107.404 110.615 108.606 113.945C109.807 117.275 109.64 120.946 108.14 124.153L101.216 147.316C101.018 147.979 100.679 148.591 100.222 149.112C99.7658 149.632 99.2024 150.048 98.5707 150.331C97.939 150.614 97.2537 150.757 96.5616 150.751C95.8694 150.746 95.1866 150.591 94.5597 150.297H94.5597Z" fill="#0555FF"/>
<path d="M218.075 8.22383C218.553 9.71974 218.698 11.3023 218.498 12.8601C218.299 14.4179 217.76 15.913 216.92 17.2401C216.08 18.5671 214.96 19.6939 213.637 20.5411C212.315 21.3882 210.823 21.9351 209.266 22.1432L152.697 101.978L136.195 85.4414L196.989 12.1664C196.813 9.52813 197.611 6.91687 199.231 4.8274C200.851 2.73794 203.182 1.31542 205.781 0.82945C208.38 0.343476 211.067 0.827798 213.333 2.19063C215.599 3.55345 217.286 5.70012 218.075 8.22383Z" fill="#FFB8B8"/>
<path d="M165.779 92.9004C165.86 93.5879 165.791 94.2847 165.578 94.9433C165.365 95.6018 165.012 96.2067 164.544 96.7165L148.195 114.526C146.209 117.458 143.142 119.484 139.665 120.158C136.188 120.833 132.586 120.101 129.648 118.123C126.71 116.146 124.676 113.084 123.992 109.609C123.308 106.134 124.03 102.53 125.999 99.5863L136.512 77.7288C136.812 77.105 137.243 76.5533 137.775 76.1111C138.308 75.6689 138.929 75.3466 139.598 75.1663C140.266 74.986 140.965 74.9518 141.648 75.0661C142.331 75.1804 142.981 75.4406 143.554 75.8287L163.696 89.4721C164.269 89.86 164.752 90.3672 165.112 90.9588C165.471 91.5505 165.699 92.2128 165.779 92.9004Z" fill="#0555FF"/>
<path d="M149.455 50C149.439 47.7772 149.131 45.5661 148.536 43.424C144.579 28.8016 129.971 20.0254 115.311 22.2278C112.46 21.4103 109.509 20.997 106.543 21C98.9976 21 91.7011 23.698 85.971 28.6067C80.2409 33.5154 76.4549 40.3113 75.2966 47.767L63.4549 124H127.455L137.789 57.4745C138.172 55.0023 138.263 52.4934 138.058 50H149.455Z" fill="#1C1A27"/>
</svg>
